<svg width="296" height="28" viewBox="0 0 296 28" fill="none" xmlns="http://www.w3.org/2000/svg">
<path d="M36.6623 19.2418C36.6623 21.3728 35.8475 23.2218 34.2179 24.726C32.5883 26.2302 30.614 26.9824 28.3263 26.9824C26.9787 26.9824 25.3805 26.575 23.5002 25.7602C22.9988 25.5408 22.6227 25.4155 22.372 25.4155C22.0586 25.4155 21.8706 25.7602 21.8079 26.4496C21.7766 26.7943 21.6199 26.9824 21.3065 26.9824C21.0558 26.9824 20.9304 26.8257 20.9304 26.5436C20.9304 26.3556 20.9304 26.1989 20.9618 26.1049C21.1498 24.5693 21.2751 23.1591 21.2751 21.8742C21.2751 21.6235 21.2438 20.9341 21.2125 19.7745C21.1811 19.6178 21.1811 19.4298 21.1811 19.1791C21.1811 18.803 21.3378 18.615 21.6199 18.615C21.8706 18.615 22.0586 18.9284 22.1526 19.5238C22.8107 24.0052 24.9104 26.2616 28.483 26.2616C30.0186 26.2616 31.1781 25.8228 32.0242 24.9767C32.8704 24.1306 33.2778 22.9084 33.2778 21.3101C33.2778 19.8999 32.8704 18.709 32.0556 17.7375C31.2408 16.7347 29.8619 15.7632 27.8875 14.7917C25.5058 13.6322 23.8762 12.4727 22.9361 11.3758C21.9959 10.279 21.5572 8.93145 21.5572 7.30185C21.5572 5.23351 22.2153 3.5099 23.5628 2.16235C24.9104 0.814799 26.6027 0.125354 28.6397 0.125354C29.4858 0.125354 30.6453 0.4074 32.1496 1.00283C32.6823 1.19086 33.0584 1.31621 33.3091 1.31621C33.5911 1.31621 33.7478 1.25354 33.8418 1.15952C33.9359 1.06551 33.9985 0.78346 34.0926 0.376061C34.1552 0.125354 34.2806 0 34.4999 0C34.7507 0 34.876 0.156693 34.876 0.438738C34.876 0.626769 34.876 0.78346 34.8447 0.877475C34.782 1.4729 34.7193 2.19369 34.7193 3.03983C34.7193 4.23069 34.782 5.17084 34.9073 5.89162L34.9387 6.48705C34.97 6.7691 34.8447 6.89445 34.594 6.89445C34.3119 6.89445 34.1239 6.6124 34.0299 6.01697C33.7478 4.54407 33.1211 3.32187 32.0869 2.31904C31.0527 1.34755 29.9245 0.846137 28.6397 0.846137C27.3548 0.846137 26.3833 1.25354 25.6625 2.037C24.9104 2.82046 24.5657 3.9173 24.5657 5.29619C24.5657 6.89445 25.0984 8.17933 26.1639 9.15082C26.7594 9.71491 28.0756 10.467 30.0499 11.4699C32.4003 12.6294 34.0926 13.8516 35.0954 15.0424C36.1609 16.296 36.6623 17.6749 36.6623 19.2418Z" fill="#00055F"/>
<path d="M60.5422 18.1763C60.5422 18.1136 60.5109 18.4583 60.4795 19.1791C60.3855 20.6207 60.3228 22.0309 60.3228 23.3784C60.3228 23.5351 60.3542 23.8172 60.3855 24.2873C60.4482 24.7573 60.4482 25.2901 60.4482 25.9482V26.2929C60.4482 26.6063 60.3542 26.7943 60.1348 26.7943C59.9468 26.7943 59.7588 26.6063 59.6021 26.2302C59.2573 25.4154 58.9126 24.8827 58.5679 24.632C56.7816 26.1989 54.6193 26.9824 52.0809 26.9824C48.4143 26.9824 45.3744 25.6975 42.9614 23.1591C40.5483 20.6207 39.3888 17.3615 39.3888 13.4755C39.3888 9.58954 40.4856 6.36168 42.7107 3.88595C44.9357 1.41021 47.7561 0.156677 51.2661 0.156677C52.5509 0.156677 53.5538 0.250692 54.3059 0.470061C55.058 0.68943 55.9982 1.09683 57.1263 1.75494C57.6904 2.06832 58.0978 2.22501 58.3485 2.22501C58.5679 2.22501 58.7873 2.03698 58.9753 1.62958C59.2887 0.940138 59.5707 0.595415 59.7588 0.595415C59.9468 0.595415 60.0721 0.689431 60.0721 0.9088C60.0721 1.00281 60.0408 1.15951 60.0095 1.37888C59.7274 2.56974 59.6021 4.8261 59.6021 8.11663C59.6021 8.58671 59.5707 8.86876 59.4767 8.93143C59.414 8.99411 59.2887 9.05679 59.1633 9.05679C58.9126 9.05679 58.7559 8.80608 58.6619 8.336C58.3485 6.33035 57.8785 4.85744 57.283 3.88595C56.0608 1.88029 54.1492 0.87746 51.5168 0.87746C49.5111 0.87746 47.8815 1.56691 46.722 2.91446C44.591 5.32751 43.5568 8.86876 43.5568 13.5382C43.5568 17.7062 44.4343 20.934 46.1892 23.2218C47.7248 25.2274 49.7305 26.2302 52.2689 26.2302C53.5538 26.2302 54.7446 25.9169 55.8415 25.2587C56.907 24.632 57.7218 23.7545 58.3172 22.6577C58.9753 21.3728 59.414 19.9939 59.6961 18.4896C59.7901 17.8942 59.9468 17.5808 60.1975 17.5808C60.4169 17.6122 60.5422 17.8002 60.5422 18.1763Z" fill="#00055F"/>
<path d="M87.7753 26.1989C87.7753 26.4183 87.5246 26.5436 87.0859 26.5436H78.9379C78.4365 26.5436 78.1858 26.4496 78.1858 26.2616C78.1858 26.0735 78.7812 25.9169 79.9094 25.8542C80.5362 25.7915 80.8809 25.6975 80.9749 25.5408C81.0689 25.3841 81.1316 24.7887 81.1316 23.8172V12.8801H69.8498V23.4725C69.8498 24.6006 69.9438 25.2587 70.1005 25.4468C70.2885 25.6348 70.8526 25.7915 71.8554 25.8542C72.5135 25.9169 72.8269 26.0109 72.8269 26.1989C72.8269 26.4183 72.5762 26.5436 72.0748 26.5436H63.9581C63.4567 26.5436 63.206 26.4496 63.206 26.2616C63.206 26.0735 63.4567 25.9482 63.9581 25.8855C64.2715 25.8542 64.6163 25.8228 64.961 25.8228C65.5251 25.7602 65.8698 25.6348 65.9951 25.4468C66.0578 25.3214 66.1205 24.632 66.1205 23.3471V3.60391C66.1205 2.47572 66.0578 1.81762 65.9638 1.62959C65.8384 1.44156 65.4624 1.3162 64.7729 1.28486C63.9895 1.22219 63.5507 1.19085 63.3941 1.15951C63.2687 1.12817 63.1747 1.03416 63.1747 0.846126C63.1747 0.626757 63.3314 0.532742 63.6448 0.532742C63.7388 0.532742 63.9581 0.532741 64.2715 0.56408C64.8983 0.626757 66.3712 0.626757 68.6902 0.626757C69.9751 0.626757 70.8526 0.595418 71.354 0.56408C71.542 0.532741 71.7614 0.501404 72.0121 0.501404C72.4509 0.501404 72.6702 0.626756 72.6702 0.877464C72.6702 1.09683 72.2628 1.22219 71.448 1.22219C70.6332 1.22219 70.1632 1.3162 69.9751 1.50423C69.8184 1.69226 69.7244 2.28769 69.7244 3.29052V11.9399H81.0062V3.85461C81.0062 2.5384 80.9122 1.75494 80.6929 1.50423C80.5048 1.25352 79.784 1.15951 78.5932 1.19085C78.2171 1.19085 78.0291 1.06549 78.0291 0.846126C78.0291 0.626757 78.2485 0.501404 78.6559 0.501404H86.8038C87.3366 0.501404 87.5873 0.626757 87.5873 0.846126C87.5873 1.06549 87.0232 1.19085 85.9264 1.22219C85.613 1.22219 85.3623 1.25353 85.2056 1.28486C84.9549 1.34754 84.7982 1.50423 84.7355 1.69226C84.6728 1.88029 84.6415 2.47572 84.6415 3.44721V23.3471C84.6415 24.538 84.7042 25.2587 84.8295 25.4468C85.0802 25.7288 85.801 25.8542 86.9605 25.8542C87.556 25.8542 87.7753 25.9482 87.7753 26.1989Z" fill="#00055F"/>
<path d="M114.319 26.2929C114.319 26.5123 114.131 26.6063 113.755 26.6063C113.504 26.6063 113.285 26.6063 113.097 26.575L108.333 26.4183L103.57 26.575C103.382 26.6063 103.194 26.6063 103.006 26.6063C102.504 26.6063 102.254 26.481 102.254 26.2303C102.254 25.9482 102.598 25.7915 103.256 25.7915C105.45 25.7602 106.547 25.5408 106.547 25.1334C106.547 25.1021 106.516 25.0081 106.484 24.8514L106.171 23.8485L105.983 23.3158C105.763 22.5323 105.199 20.84 104.353 18.1763H96.362C94.8577 22.1563 94.1056 24.4753 94.1056 25.0707C94.1056 25.4155 94.2623 25.6348 94.5443 25.6975C94.607 25.7288 95.2338 25.7602 96.4246 25.8542C97.1454 25.8855 97.5215 26.0109 97.5215 26.2303C97.5215 26.481 97.2081 26.6063 96.55 26.6063C95.3905 26.6063 94.0743 26.5436 92.5387 26.4496C92.1626 26.4183 91.7865 26.4183 91.3791 26.4183C90.9717 26.4183 90.5957 26.4496 90.2196 26.5436C90.0316 26.575 89.8749 26.6063 89.7496 26.6063C89.4048 26.6063 89.2168 26.481 89.2168 26.2616C89.2168 26.0422 89.5929 25.9169 90.4077 25.8855C91.1911 25.8542 91.7552 25.7288 92.0999 25.5408C92.4447 25.3214 92.7267 24.914 92.9147 24.3186C96.1112 15.1051 98.7437 7.70925 100.749 2.13101C100.812 1.84897 100.937 1.50425 101.094 1.12819L101.251 0.438741C101.313 0.156695 101.439 0.0313416 101.564 0.0313416C101.627 0.0313416 101.689 0.0940174 101.752 0.250709C102.066 1.2222 102.818 3.2592 103.946 6.3617C104.855 8.77476 107.08 14.8544 110.652 24.6007C110.84 25.1647 111.122 25.5095 111.436 25.6662C111.749 25.8229 112.376 25.9169 113.347 25.9482C114.005 25.9482 114.319 26.0736 114.319 26.2929ZM104.197 17.3301C103.789 16.202 103.1 14.353 102.191 11.7519L100.405 6.54973C99.3391 9.30751 98.0856 12.9114 96.6127 17.3301H104.197Z" fill="#00055F"/>
<path d="M136.757 25.4154C136.757 26.4496 135.88 26.9824 134.125 26.9824C132.182 26.9824 130.646 26.1676 129.549 24.538C129.079 23.8485 128.766 23.1591 128.641 22.5323C128.515 21.9055 128.296 20.2446 128.014 17.5808C127.857 15.9826 127.356 14.8544 126.478 14.1963C125.601 13.5382 124.191 13.1935 122.216 13.1308V24.914C122.216 25.4154 122.624 25.7288 123.407 25.8542C123.626 25.8855 124.191 25.9169 125.131 25.9169C125.444 25.9169 125.601 26.0109 125.601 26.2302C125.601 26.4496 125.381 26.575 124.974 26.575H116.168C115.604 26.575 115.353 26.4496 115.353 26.2302C115.353 26.0422 115.698 25.9482 116.45 25.9169C117.61 25.8855 118.268 25.7288 118.362 25.4781C118.456 25.3528 118.518 24.8827 118.518 24.0052V3.3532C118.518 2.35037 118.424 1.75494 118.205 1.56691C117.986 1.37888 117.359 1.25353 116.293 1.22219C115.667 1.22219 115.353 1.09683 115.353 0.877464C115.353 0.626756 115.541 0.501404 115.949 0.501404C116.011 0.501404 116.137 0.501403 116.293 0.532742L121.276 0.658096C121.778 0.658096 122.467 0.658096 123.376 0.595419C124.379 0.532742 125.068 0.501404 125.475 0.501404C127.795 0.501404 129.643 1.03416 130.991 2.06832C132.339 3.10249 133.028 4.51272 133.028 6.26767C133.028 8.02262 132.339 9.46419 130.928 10.5924C129.518 11.7206 127.638 12.41 125.225 12.598C125.005 12.6294 124.88 12.6607 124.849 12.7234C124.849 12.8174 124.974 12.8801 125.225 12.8801C127.857 13.3188 129.643 14.259 130.646 15.6379C131.618 17.0167 132.276 19.5238 132.621 23.1591C132.809 25.2274 133.529 26.2302 134.72 26.2302C135.096 26.2302 135.284 26.1676 135.284 26.0109C135.284 25.9795 135.284 25.9482 135.253 25.9482C135.128 25.6661 135.065 25.4468 135.065 25.2587C135.065 24.726 135.347 24.4753 135.88 24.4753C136.444 24.4753 136.757 24.7887 136.757 25.4154ZM129.017 6.64373C129.017 3.07115 127.481 1.28486 124.379 1.28486C123.564 1.28486 123 1.41022 122.686 1.62959C122.373 1.84896 122.248 2.25635 122.248 2.82045V12.316C124.629 12.3473 126.384 11.9086 127.418 10.9998C128.453 10.091 129.017 8.68073 129.017 6.64373Z" fill="#00055F"/>
<path d="M162.329 26.2929C162.329 26.5123 162.141 26.6063 161.765 26.6063C161.515 26.6063 161.295 26.6063 161.076 26.575L156.312 26.4183L151.549 26.575C151.361 26.6063 151.173 26.6063 150.985 26.6063C150.484 26.6063 150.233 26.481 150.233 26.2303C150.233 25.9482 150.578 25.7915 151.236 25.7915C153.429 25.7602 154.526 25.5408 154.526 25.1334C154.526 25.1021 154.495 25.0081 154.464 24.8514L154.15 23.8485L153.962 23.3158C153.743 22.5323 153.179 20.84 152.333 18.1763H144.341C142.837 22.1563 142.085 24.4753 142.085 25.0707C142.085 25.4155 142.242 25.6348 142.524 25.6975C142.586 25.7288 143.213 25.7602 144.404 25.8542C145.125 25.8855 145.501 26.0109 145.501 26.2303C145.501 26.481 145.187 26.6063 144.529 26.6063C143.37 26.6063 142.054 26.5436 140.518 26.4496C140.142 26.4183 139.766 26.4183 139.358 26.4183C138.951 26.4183 138.575 26.4496 138.199 26.5436C138.011 26.575 137.854 26.6063 137.729 26.6063C137.384 26.6063 137.196 26.481 137.196 26.2616C137.196 26.0422 137.572 25.9169 138.387 25.8855C139.17 25.8542 139.734 25.7288 140.079 25.5408C140.424 25.3214 140.706 24.914 140.894 24.3186C144.091 15.1051 146.723 7.70925 148.729 2.13101C148.791 1.84897 148.917 1.50425 149.073 1.12819L149.23 0.438741C149.293 0.156695 149.418 0.0313416 149.543 0.0313416C149.606 0.0313416 149.669 0.0940174 149.731 0.250709C150.045 1.2222 150.797 3.2592 151.925 6.3617C152.834 8.77476 155.059 14.8544 158.632 24.6007C158.82 25.1647 159.102 25.5095 159.415 25.6662C159.728 25.8229 160.355 25.9169 161.358 25.9482C162.016 25.9482 162.329 26.0736 162.329 26.2929ZM152.176 17.3301C151.768 16.202 151.079 14.353 150.17 11.7519L148.384 6.54973C147.318 9.30751 146.065 12.9114 144.592 17.3301C144.561 17.3301 152.176 17.3301 152.176 17.3301Z" fill="#00055F"/>
<path d="M183.702 26.1989C183.702 26.4183 183.545 26.5123 183.263 26.5123H182.887C182.731 26.4496 181.038 26.3869 177.811 26.3869C177.184 26.3869 176.557 26.4183 175.93 26.4496C175.617 26.4809 175.115 26.4809 174.426 26.4809C174.113 26.4809 173.956 26.3556 173.956 26.1362C173.956 25.9482 174.269 25.8228 174.927 25.7915C175.93 25.7602 176.526 25.6348 176.682 25.4468C176.87 25.2274 176.933 24.5066 176.933 23.2844V3.54123C176.933 2.31903 176.87 1.62958 176.745 1.47289C176.588 1.22218 175.899 1.06549 174.645 1.03415C174.175 1.00282 173.925 0.940138 173.925 0.783446C173.925 0.595416 174.081 0.470062 174.363 0.470062H179.44C179.816 0.470062 180.537 0.470063 181.634 0.501401L183.075 0.470062C183.483 0.470062 183.671 0.564077 183.671 0.783446C183.671 0.971477 183.107 1.09683 182.01 1.12817C181.383 1.15951 181.007 1.25352 180.85 1.47289C180.725 1.66092 180.631 2.19368 180.631 3.03981V23.0964C180.631 24.5066 180.694 25.2901 180.819 25.4154C181.101 25.6975 181.916 25.8542 183.263 25.9169C183.577 25.8855 183.702 26.0109 183.702 26.1989Z" fill="#00055F"/>
<path d="M209.494 0.877464C209.494 1.12817 209.18 1.25353 208.554 1.22219H207.049C206.642 1.22219 206.423 1.28486 206.328 1.44156C206.234 1.59825 206.203 2.00565 206.203 2.69509V24.2246C206.203 25.5408 206.203 26.3243 206.172 26.5436C206.14 26.763 206.078 26.8883 205.952 26.8883C205.796 26.8883 205.639 26.763 205.42 26.4809L200.625 19.4611C197.867 15.3871 194.483 10.279 190.503 4.168V25.1334C190.534 25.4468 190.722 25.6661 191.067 25.7602C191.411 25.8542 192.258 25.9169 193.605 25.9169C193.918 25.9169 194.107 26.0109 194.107 26.2302C194.107 26.4809 193.793 26.6063 193.135 26.6063C192.916 26.6063 192.195 26.575 191.004 26.4809C190.597 26.4496 190.221 26.4496 189.844 26.4496C189.876 26.4496 189.656 26.4809 189.186 26.5123C188.716 26.575 188.027 26.575 187.055 26.575H186.679C186.115 26.575 185.802 26.4496 185.802 26.2302C185.802 26.0109 186.053 25.8855 186.554 25.8855C188.027 25.8542 188.873 25.7602 189.124 25.6035C189.374 25.4468 189.468 24.914 189.468 24.0052V5.54689C189.468 3.47855 189.061 2.16234 188.184 1.66092C187.776 1.41022 187.087 1.28486 186.053 1.28486C185.394 1.28486 185.081 1.15951 185.081 0.877464C185.081 0.626756 185.269 0.532742 185.645 0.532742C186.147 0.532742 186.773 0.56408 187.557 0.595419C188.34 0.658096 188.748 0.658096 188.779 0.658096C188.842 0.658096 189.186 0.658095 189.813 0.626757C190.628 0.626757 191.443 0.595419 192.226 0.501404L205.138 19.7745V3.13383C205.138 2.35037 205.138 1.88029 205.106 1.7236C205.075 1.56691 204.981 1.44156 204.793 1.34754C204.605 1.25352 204.009 1.22219 203.007 1.22219C202.098 1.22219 201.659 1.09683 201.659 0.877464C201.659 0.626756 201.972 0.501404 202.568 0.501404H208.585C209.212 0.501404 209.494 0.626756 209.494 0.877464Z" fill="#00055F"/>
<path d="M235.849 0.752099C235.849 0.940129 235.599 1.06548 235.129 1.09682C234.032 1.12816 233.311 1.28485 232.935 1.59824C232.559 1.91162 232.183 2.60106 231.775 3.69791L230.49 7.17647C227.419 15.6065 225.257 22.0936 224.003 26.5749C223.941 26.8883 223.815 27.0137 223.627 27.0137C223.439 27.0137 223.001 26.0735 222.405 24.1932C221.277 20.7773 220.399 18.2076 219.773 16.484C219.115 14.5723 218.112 11.7519 216.796 7.95993L214.978 2.91445C214.727 2.225 214.445 1.75493 214.163 1.50422C213.85 1.25351 213.38 1.12816 212.659 1.12816C211.844 1.09682 211.343 1.06548 211.186 1.06548C211.029 1.03414 210.935 0.940129 210.935 0.752099C210.935 0.53273 211.186 0.407376 211.687 0.407376H212.032C212.471 0.407376 213.254 0.438714 214.383 0.470053C215.479 0.501391 216.294 0.53273 216.764 0.53273C216.89 0.53273 217.36 0.501391 218.206 0.470053C219.052 0.438714 220.243 0.407376 221.778 0.407376H222.311C222.75 0.407376 223.001 0.53273 223.001 0.752099C223.001 1.00281 222.562 1.12816 221.653 1.1595L219.365 1.22217C218.833 1.25351 218.582 1.4102 218.582 1.72359C218.582 1.78627 218.613 1.88028 218.645 2.03697L218.927 3.0398C218.989 3.22783 220.211 6.76907 222.593 13.6008C223.001 14.7917 223.753 17.0167 224.881 20.3073C228.986 8.64938 231.055 2.50705 231.055 1.91162C231.055 1.31619 230.428 1.06548 229.206 1.12816H228.046C227.733 1.12816 227.607 1.03414 227.607 0.783437C227.607 0.501391 227.983 0.376038 228.736 0.376038H230.02C230.71 0.438714 231.243 0.501392 231.556 0.501392H232.747L235.223 0.376038C235.599 0.470053 235.849 0.564068 235.849 0.752099Z" fill="#00055F"/>
<path d="M274.49 19.2418C274.49 21.3728 273.675 23.2218 272.045 24.726C270.416 26.2302 268.441 26.9824 266.154 26.9824C264.806 26.9824 263.208 26.575 261.327 25.7602C260.826 25.5408 260.45 25.4155 260.199 25.4155C259.886 25.4155 259.729 25.7602 259.635 26.4496C259.604 26.7943 259.447 26.9824 259.165 26.9824C258.914 26.9824 258.789 26.8257 258.789 26.5436C258.789 26.3556 258.789 26.1989 258.82 26.1049C259.008 24.5693 259.134 23.1591 259.134 21.8742C259.134 21.6235 259.102 20.9341 259.071 19.7745C259.04 19.6178 259.04 19.4298 259.04 19.1791C259.04 18.803 259.196 18.615 259.479 18.615C259.729 18.615 259.886 18.9284 260.011 19.5238C260.669 24.0052 262.769 26.2616 266.342 26.2616C267.877 26.2616 269.037 25.8228 269.883 24.9767C270.729 24.1306 271.136 22.9084 271.136 21.3101C271.136 19.8999 270.729 18.709 269.914 17.7375C269.099 16.7347 267.721 15.7632 265.746 14.7917C263.364 13.6322 261.735 12.4727 260.795 11.3758C259.855 10.279 259.416 8.93145 259.416 7.30185C259.416 5.23351 260.074 3.5099 261.421 2.16235C262.769 0.814799 264.461 0.125354 266.498 0.125354C267.344 0.125354 268.535 0.4074 270.008 1.00283C270.541 1.19086 270.917 1.31621 271.168 1.31621C271.45 1.31621 271.638 1.25354 271.7 1.15952C271.795 1.06551 271.857 0.78346 271.951 0.376061C272.014 0.125354 272.139 0 272.359 0C272.609 0 272.735 0.156693 272.735 0.438738C272.735 0.626769 272.735 0.78346 272.703 0.877475C272.641 1.4729 272.578 2.19369 272.578 3.03983C272.578 4.23069 272.641 5.17084 272.766 5.89162L272.797 6.48705C272.829 6.7691 272.703 6.89445 272.453 6.89445C272.171 6.89445 271.983 6.6124 271.889 6.01697C271.606 4.54407 270.948 3.32187 269.946 2.31904C268.911 1.34755 267.783 0.846137 266.498 0.846137C265.213 0.846137 264.242 1.25354 263.521 2.037C262.8 2.82046 262.424 3.9173 262.424 5.29619C262.424 6.89445 262.957 8.17933 264.023 9.15082C264.618 9.71491 265.903 10.467 267.909 11.4699C270.259 12.6294 271.951 13.8516 272.954 15.0424C273.957 16.296 274.49 17.6749 274.49 19.2418Z" fill="#00055F"/>
<path d="M295.988 7.20782C295.988 7.52121 295.831 7.6779 295.549 7.6779C295.236 7.6779 295.048 7.36452 294.922 6.70641C294.86 6.26767 294.828 5.7976 294.766 5.35886C294.578 4.45004 294.295 3.69792 293.888 3.07115C293.355 2.25635 292.509 1.7236 291.318 1.50423C290.535 1.34754 289.908 1.28486 289.438 1.3162C288.278 1.34754 287.558 1.37888 287.307 1.37888V23.9739C287.307 24.8827 287.558 25.4468 288.028 25.6661C288.278 25.7915 288.968 25.8542 290.127 25.8855C290.441 25.9169 290.566 26.0109 290.566 26.1989C290.566 26.4183 290.378 26.5123 289.971 26.5123C289.783 26.5123 289.595 26.5123 289.438 26.4809C287.934 26.4183 286.868 26.4183 286.241 26.4183C285.427 26.4183 284.643 26.4496 283.922 26.4809C283.202 26.5123 282.262 26.5436 281.165 26.5436C280.601 26.5436 280.287 26.4496 280.287 26.2302C280.287 26.0109 280.82 25.8855 281.885 25.8542C282.669 25.8542 283.17 25.6975 283.39 25.3528C283.515 25.1647 283.578 24.632 283.578 23.8172V1.41022C281.102 1.44156 279.566 1.56691 278.971 1.78628C277.404 2.35037 276.464 3.88595 276.213 6.39302C276.151 7.14515 275.962 7.52121 275.68 7.52121C275.367 7.52121 275.242 7.2705 275.242 6.73775C275.242 6.4557 275.242 6.17366 275.273 5.92295L275.336 5.04547C275.398 3.88595 275.524 2.38171 275.68 0.501404H277.373L285.019 0.626757C285.928 0.658095 287.307 0.658095 289.219 0.626757L295.424 0.501404C295.486 1.91163 295.643 3.97997 295.894 6.70641C295.894 6.76909 295.894 6.8631 295.925 6.98845C295.988 7.11381 296.019 7.17648 295.988 7.20782Z" fill="#00055F"/>
<path d="M16.8565 13.2248C14.8822 12.1906 12.7198 11.7519 10.5888 12.0026C9.33526 12.1593 7.64298 12.316 6.38945 12.4413C4.35245 12.6921 2.12742 12.9114 0.121763 13.2248C-0.0349289 13.2561 -0.0349284 13.5068 0.0904253 13.5382C1.50065 13.7889 2.91088 13.9456 4.28977 14.1023C5.35528 14.2276 7.42361 14.4157 8.48912 14.5097C9.89935 14.635 11.3096 14.9798 12.6885 14.7917C14.1614 14.6037 15.5403 14.2903 16.8878 13.5382C16.9818 13.4442 16.9818 13.2561 16.8565 13.2248Z" fill="#000066"/>
<path d="M16.8565 1.75496C14.8822 0.720788 12.7198 0.282049 10.5888 0.532757C9.33526 0.689449 7.64298 0.846141 6.38945 0.971495C4.35245 1.2222 2.12742 1.44157 0.121763 1.75496C-0.0349289 1.78629 -0.0349284 2.037 0.0904253 2.06834C1.50065 2.31905 2.91088 2.47574 4.28977 2.63243C5.35528 2.75778 7.42361 2.94581 8.48912 3.03983C9.89935 3.16518 11.3096 3.50991 12.6885 3.32188C14.1614 3.13385 15.5403 2.82046 16.8878 2.06834C16.9818 2.00566 16.9818 1.81763 16.8565 1.75496Z" fill="#000066"/>
<path d="M16.8565 24.6633C14.8822 23.6291 12.7198 23.1904 10.5888 23.4411C9.33526 23.5978 7.64298 23.7545 6.38945 23.8799C4.35245 24.1306 2.12742 24.3499 0.121763 24.6633C-0.0349289 24.6946 -0.0349284 24.9454 0.0904253 24.9767C1.50065 25.2274 2.91088 25.3841 4.28977 25.5408C5.35528 25.6661 7.42361 25.8542 8.48912 25.9482C9.89935 26.0735 11.3096 26.4183 12.6885 26.2302C14.1614 26.0422 15.5403 25.7288 16.8878 24.9767C16.9818 24.8827 16.9818 24.6946 16.8565 24.6633Z" fill="#000066"/>
<path d="M254.778 13.2248C252.803 12.1906 250.641 11.7519 248.51 12.0026C247.256 12.1593 245.564 12.316 244.311 12.4413C242.274 12.6921 240.049 12.9114 238.043 13.2248C237.886 13.2561 237.886 13.5068 238.012 13.5382C239.422 13.7889 240.832 13.9456 242.211 14.1023C243.276 14.2276 245.345 14.4157 246.41 14.5097C247.82 14.635 249.231 14.9798 250.61 14.7917C252.083 14.6037 253.461 14.2903 254.809 13.5382C254.872 13.4442 254.872 13.2561 254.778 13.2248Z" fill="#000066"/>
<path d="M254.778 1.75496C252.803 0.720788 250.641 0.282049 248.51 0.532757C247.256 0.689449 245.564 0.846141 244.311 0.971495C242.274 1.2222 240.049 1.44157 238.043 1.75496C237.886 1.78629 237.886 2.037 238.012 2.06834C239.422 2.31905 240.832 2.47574 242.211 2.63243C243.276 2.75778 245.345 2.94581 246.41 3.03983C247.82 3.16518 249.231 3.50991 250.61 3.32188C252.083 3.13385 253.461 2.82046 254.809 2.06834C254.872 2.00566 254.872 1.81763 254.778 1.75496Z" fill="#000066"/>
<path d="M254.778 24.6633C252.803 23.6291 250.641 23.1904 248.51 23.4411C247.256 23.5978 245.564 23.7545 244.311 23.8799C242.274 24.1306 240.049 24.3499 238.043 24.6633C237.886 24.6946 237.886 24.9454 238.012 24.9767C239.422 25.2274 240.832 25.3841 242.211 25.5408C243.276 25.6661 245.345 25.8542 246.41 25.9482C247.82 26.0735 249.231 26.4183 250.61 26.2302C252.083 26.0422 253.461 25.7288 254.809 24.9767C254.872 24.8827 254.872 24.6946 254.778 24.6633Z" fill="#000066"/>
</svg>
