<svg xmlns="http://www.w3.org/2000/svg" width="184" height="17" viewBox="0 0 184 17" fill="none">
  <path d="M22.7901 11.9611C22.7901 13.2858 22.2836 14.4351 21.2706 15.3702C20.2576 16.3053 19.0303 16.7728 17.6082 16.7728C16.7706 16.7728 15.7771 16.5196 14.6082 16.0131C14.2965 15.8767 14.0628 15.7988 13.9069 15.7988C13.7121 15.7988 13.5952 16.0131 13.5563 16.4417C13.5368 16.6559 13.4394 16.7728 13.2446 16.7728C13.0887 16.7728 13.0108 16.6754 13.0108 16.5001C13.0108 16.3832 13.0108 16.2858 13.0303 16.2274C13.1472 15.2728 13.2251 14.3962 13.2251 13.5975C13.2251 13.4416 13.2056 13.0131 13.1861 12.2923C13.1666 12.1949 13.1666 12.078 13.1666 11.9221C13.1666 11.6884 13.2641 11.5715 13.4394 11.5715C13.5952 11.5715 13.7121 11.7663 13.7705 12.1364C14.1796 14.9222 15.4848 16.3248 17.7056 16.3248C18.6602 16.3248 19.381 16.052 19.9069 15.5261C20.4329 15.0001 20.6862 14.2403 20.6862 13.2468C20.6862 12.3702 20.4329 11.6299 19.9264 11.026C19.4199 10.4027 18.5628 9.79876 17.3355 9.19486C15.855 8.47408 14.842 7.75329 14.2576 7.07147C13.6731 6.38965 13.4004 5.55198 13.4004 4.53899C13.4004 3.25327 13.8095 2.18183 14.6472 1.34416C15.4848 0.506497 16.5368 0.0779228 17.803 0.0779228C18.329 0.0779228 19.0498 0.253248 19.9849 0.62338C20.316 0.740264 20.5498 0.818187 20.7057 0.818187C20.881 0.818187 20.9784 0.779226 21.0368 0.720784C21.0953 0.662342 21.1342 0.487016 21.1927 0.233768C21.2316 0.0779227 21.3096 0 21.4459 0C21.6018 0 21.6797 0.0974035 21.6797 0.272729C21.6797 0.389613 21.6797 0.487016 21.6602 0.545458C21.6212 0.91559 21.5823 1.36364 21.5823 1.88962C21.5823 2.62989 21.6212 3.2143 21.6992 3.66236L21.7186 4.03249C21.7381 4.20782 21.6602 4.28574 21.5044 4.28574C21.329 4.28574 21.2121 4.11041 21.1537 3.74028C20.9784 2.82469 20.5888 2.06495 19.9459 1.44157C19.303 0.837668 18.6017 0.525977 17.803 0.525977C17.0043 0.525977 16.4004 0.779225 15.9524 1.26624C15.4848 1.75326 15.2706 2.43508 15.2706 3.29223C15.2706 4.28574 15.6017 5.08445 16.2641 5.68835C16.6342 6.039 17.4524 6.50653 18.6797 7.12991C20.1407 7.8507 21.1927 8.61044 21.816 9.35071C22.4784 10.1299 22.7901 10.9871 22.7901 11.9611Z" fill="white"/>
  <path d="M37.6344 11.2988C37.6344 11.2598 37.6149 11.4741 37.5954 11.9222C37.5369 12.8183 37.498 13.6949 37.498 14.5326C37.498 14.63 37.5175 14.8053 37.537 15.0975C37.5759 15.3897 37.5759 15.7209 37.5759 16.13V16.3443C37.5759 16.5391 37.5175 16.656 37.3811 16.656C37.2642 16.656 37.1473 16.5391 37.0499 16.3053C36.8356 15.7988 36.6214 15.4676 36.4071 15.3118C35.2967 16.2858 33.9525 16.7728 32.3746 16.7728C30.0953 16.7728 28.2057 15.9741 26.7057 14.3962C25.2057 12.8183 24.4849 10.7923 24.4849 8.37668C24.4849 5.96108 25.1667 3.95458 26.5499 2.41561C27.933 0.876638 29.6863 0.0974121 31.8681 0.0974121C32.6668 0.0974121 33.2902 0.155854 33.7577 0.292218C34.2252 0.428583 34.8097 0.681832 35.511 1.09092C35.8616 1.28573 36.1149 1.38313 36.2707 1.38313C36.4071 1.38313 36.5434 1.26625 36.6603 1.013C36.8551 0.584428 37.0305 0.370141 37.1473 0.370141C37.2642 0.370141 37.3421 0.428583 37.3421 0.564948C37.3421 0.62339 37.3227 0.720793 37.3032 0.857157C37.1279 1.59742 37.0499 3.00003 37.0499 5.04549C37.0499 5.3377 37.0305 5.51303 36.972 5.55199C36.9331 5.59095 36.8551 5.62991 36.7772 5.62991C36.6214 5.62991 36.524 5.47407 36.4655 5.18186C36.2707 3.9351 35.9785 3.01951 35.6084 2.41561C34.8486 1.16885 33.6603 0.545467 32.0239 0.545467C30.7772 0.545467 29.7642 0.974041 29.0434 1.81171C27.7187 3.31172 27.0758 5.51303 27.0758 8.41564C27.0758 11.0066 27.6213 13.0131 28.7122 14.4352C29.6668 15.6819 30.9135 16.3053 32.4915 16.3053C33.2902 16.3053 34.0304 16.1105 34.7123 15.7014C35.3746 15.3118 35.8811 14.7663 36.2512 14.0845C36.6603 13.2858 36.933 12.4287 37.1084 11.4936C37.1668 11.1235 37.2642 10.9286 37.4201 10.9286C37.5564 10.9481 37.6344 11.065 37.6344 11.2988Z" fill="white"/>
  <path d="M54.5631 16.2858C54.5631 16.4221 54.4072 16.5001 54.1345 16.5001H49.0695C48.7578 16.5001 48.602 16.4416 48.602 16.3247C48.602 16.2078 48.9721 16.1104 49.6734 16.0715C50.063 16.0325 50.2773 15.9741 50.3358 15.8767C50.3942 15.7793 50.4332 15.4091 50.4332 14.8052V8.0065H43.4201V14.591C43.4201 15.2923 43.4786 15.7013 43.576 15.8182C43.6929 15.9351 44.0435 16.0325 44.6669 16.0715C45.076 16.1104 45.2708 16.1689 45.2708 16.2858C45.2708 16.4221 45.1149 16.5001 44.8033 16.5001H39.7578C39.4461 16.5001 39.2902 16.4416 39.2902 16.3247C39.2902 16.2078 39.4461 16.1299 39.7578 16.091C39.9526 16.0715 40.1669 16.052 40.3812 16.052C40.7318 16.013 40.9461 15.9351 41.024 15.8182C41.063 15.7403 41.1019 15.3117 41.1019 14.513V2.24023C41.1019 1.53893 41.063 1.12983 41.0045 1.01295C40.9266 0.896064 40.6928 0.818142 40.2643 0.798661C39.7772 0.7597 39.5045 0.740219 39.4071 0.720739C39.3292 0.701258 39.2708 0.642816 39.2708 0.525932C39.2708 0.389568 39.3682 0.331126 39.563 0.331126C39.6214 0.331126 39.7578 0.331126 39.9526 0.350606C40.3422 0.389567 41.2578 0.389568 42.6993 0.389568C43.4981 0.389568 44.0435 0.370087 44.3552 0.350606C44.4721 0.331126 44.6084 0.311646 44.7643 0.311646C45.037 0.311646 45.1734 0.389567 45.1734 0.545413C45.1734 0.681777 44.9201 0.7597 44.4136 0.7597C43.9071 0.7597 43.6149 0.818141 43.4981 0.935025C43.4006 1.05191 43.3422 1.42204 43.3422 2.04542V7.42208H50.3552V2.39607C50.3552 1.57789 50.2968 1.09087 50.1604 0.935025C50.0435 0.77918 49.5955 0.720738 48.8552 0.740219C48.6215 0.740219 48.5046 0.662297 48.5046 0.525932C48.5046 0.389568 48.6409 0.311646 48.8942 0.311646H53.9591C54.2903 0.311646 54.4462 0.389568 54.4462 0.525932C54.4462 0.662297 54.0955 0.740219 53.4137 0.7597C53.2189 0.7597 53.063 0.779181 52.9656 0.798661C52.8098 0.837623 52.7124 0.935026 52.6734 1.05191C52.6345 1.16879 52.615 1.53893 52.615 2.14282V14.513C52.615 15.2533 52.6539 15.7013 52.7319 15.8182C52.8877 15.9936 53.3358 16.0715 54.0566 16.0715C54.4267 16.0715 54.5631 16.1299 54.5631 16.2858Z" fill="white"/>
  <path d="M71.0631 16.3442C71.0631 16.4806 70.9462 16.539 70.7124 16.539C70.5566 16.539 70.4202 16.539 70.3034 16.5196L67.3423 16.4222L64.3812 16.5196C64.2644 16.539 64.1475 16.539 64.0306 16.539C63.7189 16.539 63.5631 16.4611 63.5631 16.3053C63.5631 16.13 63.7773 16.0326 64.1864 16.0326C65.5501 16.0131 66.2319 15.8767 66.2319 15.6235C66.2319 15.604 66.2124 15.5455 66.1929 15.4481L65.9981 14.8248L65.8812 14.4936C65.7449 14.0066 65.3942 12.9546 64.8683 11.2988H59.9007C58.9656 13.7728 58.4981 15.2144 58.4981 15.5845C58.4981 15.7988 58.5955 15.9351 58.7708 15.9741C58.8098 15.9936 59.1994 16.0131 59.9397 16.0715C60.3877 16.091 60.6215 16.1689 60.6215 16.3053C60.6215 16.4611 60.4267 16.539 60.0176 16.539C59.2968 16.539 58.4786 16.5001 57.5241 16.4416C57.2903 16.4222 57.0565 16.4222 56.8033 16.4222C56.55 16.4222 56.3163 16.4416 56.0825 16.5001C55.9656 16.5196 55.8682 16.539 55.7903 16.539C55.576 16.539 55.4591 16.4611 55.4591 16.3248C55.4591 16.1884 55.6929 16.1105 56.1994 16.091C56.6864 16.0715 57.037 15.9936 57.2513 15.8767C57.4656 15.7403 57.6409 15.4871 57.7578 15.117C59.7448 9.38966 61.3812 4.79222 62.628 1.32467C62.6669 1.14935 62.7449 0.93506 62.8423 0.701292L62.9397 0.272718C62.9786 0.0973926 63.0566 0.0194702 63.1345 0.0194702C63.1734 0.0194702 63.2124 0.0584309 63.2514 0.155834C63.4462 0.759734 63.9137 2.02597 64.615 3.95456C65.1799 5.45457 66.5631 9.23381 68.7839 15.2923C68.9007 15.6429 69.0761 15.8572 69.2709 15.9546C69.4657 16.052 69.8553 16.1105 70.4592 16.13C70.8683 16.13 71.0631 16.2079 71.0631 16.3442ZM64.7708 10.7728C64.5176 10.0715 64.089 8.92212 63.5241 7.30523L62.4137 4.07144C61.7514 5.78574 60.9721 8.02601 60.0565 10.7728H64.7708Z" fill="white"/>
  <path d="M85.0113 15.7987C85.0113 16.4416 84.4659 16.7728 83.375 16.7728C82.1672 16.7728 81.2126 16.2663 80.5308 15.2533C80.2386 14.8247 80.0438 14.3961 79.9658 14.0065C79.8879 13.6169 79.7516 12.5844 79.5762 10.9286C79.4788 9.93508 79.1671 9.23378 78.6217 8.82468C78.0762 8.41559 77.1996 8.2013 75.9723 8.16234V15.4871C75.9723 15.7987 76.2256 15.9936 76.7126 16.0715C76.8489 16.091 77.1996 16.1104 77.784 16.1104C77.9788 16.1104 78.0762 16.1689 78.0762 16.3052C78.0762 16.4416 77.9399 16.5195 77.6866 16.5195H72.2126C71.8619 16.5195 71.7061 16.4416 71.7061 16.3052C71.7061 16.1884 71.9203 16.1299 72.3879 16.1104C73.1087 16.091 73.5178 15.9936 73.5762 15.8377C73.6346 15.7598 73.6736 15.4676 73.6736 14.9221V2.08438C73.6736 1.461 73.6152 1.09087 73.4788 0.973987C73.3424 0.857103 72.9528 0.779181 72.2905 0.7597C71.9009 0.7597 71.7061 0.681777 71.7061 0.545413C71.7061 0.389567 71.8229 0.311646 72.0762 0.311646C72.1151 0.311646 72.1931 0.311645 72.2905 0.331126L75.3879 0.409049C75.6996 0.409049 76.1282 0.409049 76.6931 0.370087C77.3165 0.331126 77.7451 0.311646 77.9983 0.311646C79.4399 0.311646 80.5892 0.642816 81.4269 1.28568C82.2646 1.92854 82.6931 2.80517 82.6931 3.89608C82.6931 4.987 82.2646 5.88311 81.3879 6.58441C80.5113 7.28571 79.3425 7.71429 77.8425 7.83117C77.7061 7.85065 77.6282 7.87013 77.6087 7.90909C77.6087 7.96753 77.6866 8.0065 77.8425 8.0065C79.4788 8.27922 80.5892 8.86364 81.2126 9.72079C81.8165 10.5779 82.2256 12.1364 82.4399 14.3961C82.5568 15.6819 83.0048 16.3052 83.7451 16.3052C83.9789 16.3052 84.0957 16.2663 84.0957 16.1689C84.0957 16.1494 84.0957 16.1299 84.0763 16.1299C83.9983 15.9546 83.9594 15.8182 83.9594 15.7013C83.9594 15.3702 84.1347 15.2143 84.4659 15.2143C84.8165 15.2143 85.0113 15.4091 85.0113 15.7987ZM80.1996 4.12985C80.1996 1.90906 79.2451 0.798661 77.3165 0.798661C76.81 0.798661 76.4593 0.876584 76.2645 1.01295C76.0697 1.14931 75.9918 1.40256 75.9918 1.75321V7.65584C77.4723 7.67532 78.5632 7.4026 79.2061 6.83766C79.849 6.27272 80.1996 5.39609 80.1996 4.12985Z" fill="white"/>
  <path d="M100.908 16.3442C100.908 16.4806 100.791 16.539 100.557 16.539C100.401 16.539 100.265 16.539 100.128 16.5196L97.1672 16.4222L94.2062 16.5196C94.0893 16.539 93.9724 16.539 93.8555 16.539C93.5438 16.539 93.388 16.4611 93.388 16.3053C93.388 16.13 93.6023 16.0326 94.0114 16.0326C95.375 16.0131 96.0569 15.8767 96.0569 15.6235C96.0569 15.604 96.0374 15.5455 96.0179 15.4481L95.8231 14.8248L95.7062 14.4936C95.5698 14.0066 95.2192 12.9546 94.6932 11.2988H89.7257C88.7906 13.7728 88.323 15.2144 88.323 15.5845C88.323 15.7988 88.4204 15.9351 88.5958 15.9741C88.6347 15.9936 89.0243 16.0131 89.7646 16.0715C90.2127 16.091 90.4464 16.1689 90.4464 16.3053C90.4464 16.4611 90.2516 16.539 89.8425 16.539C89.1217 16.539 88.3036 16.5001 87.349 16.4416C87.1152 16.4222 86.8815 16.4222 86.6282 16.4222C86.375 16.4222 86.1412 16.4416 85.9074 16.5001C85.7906 16.5196 85.6932 16.539 85.6152 16.539C85.4009 16.539 85.2841 16.4611 85.2841 16.3248C85.2841 16.1884 85.5178 16.1105 86.0243 16.091C86.5113 16.0715 86.862 15.9936 87.0763 15.8767C87.2906 15.7403 87.4659 15.4871 87.5828 15.117C89.5698 9.38966 91.2062 4.79222 92.4529 1.32467C92.4919 1.14935 92.5698 0.93506 92.6672 0.701292L92.7646 0.272718C92.8036 0.0973926 92.8815 0.0194702 92.9594 0.0194702C92.9984 0.0194702 93.0374 0.0584309 93.0763 0.155834C93.2711 0.759734 93.7387 2.02597 94.44 3.95456C95.0049 5.45457 96.388 9.23381 98.6088 15.2923C98.7257 15.6429 98.901 15.8572 99.0958 15.9546C99.2906 16.052 99.6803 16.1105 100.304 16.13C100.713 16.13 100.908 16.2079 100.908 16.3442ZM94.5958 10.7728C94.3426 10.0715 93.914 8.92212 93.349 7.30523L92.2386 4.07144C91.5763 5.78574 90.7971 8.02601 89.8815 10.7728C89.862 10.7728 94.5958 10.7728 94.5958 10.7728Z" fill="white"/>
  <path d="M114.193 16.2858C114.193 16.4222 114.096 16.4806 113.921 16.4806H113.687C113.589 16.4417 112.537 16.4027 110.531 16.4027C110.141 16.4027 109.752 16.4222 109.362 16.4417C109.167 16.4612 108.856 16.4612 108.427 16.4612C108.232 16.4612 108.135 16.3832 108.135 16.2469C108.135 16.13 108.33 16.0521 108.739 16.0326C109.362 16.0131 109.732 15.9352 109.83 15.8183C109.946 15.6819 109.985 15.2339 109.985 14.4741V2.20134C109.985 1.44159 109.946 1.01302 109.869 0.915617C109.771 0.759772 109.343 0.662368 108.563 0.642888C108.271 0.623407 108.115 0.584446 108.115 0.487043C108.115 0.370159 108.213 0.292236 108.388 0.292236H111.544C111.778 0.292236 112.226 0.292237 112.908 0.311717L113.804 0.292236C114.057 0.292236 114.174 0.350678 114.174 0.487043C114.174 0.603926 113.823 0.681849 113.141 0.70133C112.752 0.720811 112.518 0.779252 112.421 0.915617C112.343 1.0325 112.284 1.36367 112.284 1.88965V14.3573C112.284 15.2339 112.323 15.7209 112.401 15.7988C112.576 15.9741 113.083 16.0715 113.921 16.1105C114.115 16.091 114.193 16.169 114.193 16.2858Z" fill="white"/>
  <path d="M130.226 0.545413C130.226 0.701258 130.031 0.779181 129.641 0.7597H128.706C128.453 0.7597 128.317 0.798661 128.258 0.896065C128.2 0.993468 128.18 1.24672 128.18 1.67529V15.0585C128.18 15.8767 128.18 16.3637 128.161 16.5001C128.141 16.6364 128.102 16.7143 128.025 16.7143C127.927 16.7143 127.83 16.6364 127.693 16.4611L124.713 12.0974C122.999 9.56495 120.895 6.3896 118.421 2.59088V15.6234C118.44 15.8182 118.557 15.9546 118.771 16.013C118.985 16.0715 119.511 16.1104 120.349 16.1104C120.544 16.1104 120.661 16.1689 120.661 16.3052C120.661 16.4611 120.466 16.539 120.057 16.539C119.921 16.539 119.473 16.5195 118.732 16.4611C118.479 16.4416 118.245 16.4416 118.011 16.4416C118.031 16.4416 117.895 16.4611 117.602 16.4806C117.31 16.5195 116.882 16.5195 116.278 16.5195H116.044C115.693 16.5195 115.498 16.4416 115.498 16.3052C115.498 16.1689 115.654 16.091 115.966 16.091C116.882 16.0715 117.408 16.013 117.563 15.9156C117.719 15.8182 117.778 15.4871 117.778 14.9221V3.44803C117.778 2.16231 117.524 1.34412 116.979 1.03243C116.726 0.876583 116.297 0.798661 115.654 0.798661C115.245 0.798661 115.05 0.720738 115.05 0.545413C115.05 0.389567 115.167 0.331126 115.401 0.331126C115.713 0.331126 116.102 0.350607 116.589 0.370087C117.076 0.409049 117.33 0.409049 117.349 0.409049C117.388 0.409049 117.602 0.409048 117.992 0.389568C118.498 0.389568 119.005 0.370087 119.492 0.311646L127.518 12.2922V1.94802C127.518 1.461 127.518 1.16879 127.499 1.07139C127.479 0.973987 127.421 0.896064 127.304 0.837622C127.187 0.77918 126.817 0.7597 126.193 0.7597C125.628 0.7597 125.356 0.681777 125.356 0.545413C125.356 0.389567 125.55 0.311646 125.921 0.311646H129.661C130.051 0.311646 130.226 0.389567 130.226 0.545413Z" fill="white"/>
  <path d="M146.609 0.467532C146.609 0.584416 146.453 0.662338 146.161 0.681819C145.479 0.7013 145.031 0.798703 144.797 0.99351C144.564 1.18832 144.33 1.61689 144.077 2.29871L143.278 4.46106C141.369 9.70135 140.025 13.7338 139.245 16.5196C139.206 16.7144 139.128 16.7923 139.012 16.7923C138.895 16.7923 138.622 16.2079 138.252 15.039C137.551 12.9157 137.005 11.3182 136.615 10.2468C136.206 9.05849 135.583 7.30523 134.765 4.94808L133.635 1.8117C133.479 1.38312 133.304 1.09091 133.128 0.935067C132.934 0.779222 132.641 0.7013 132.193 0.7013C131.687 0.68182 131.375 0.662339 131.278 0.662339C131.18 0.642858 131.122 0.584416 131.122 0.467532C131.122 0.331168 131.278 0.253245 131.589 0.253245H131.804C132.076 0.253245 132.564 0.272726 133.265 0.292206C133.947 0.311687 134.453 0.331168 134.745 0.331168C134.823 0.331168 135.115 0.311687 135.641 0.292206C136.167 0.272726 136.908 0.253245 137.862 0.253245H138.193C138.466 0.253245 138.622 0.331168 138.622 0.467532C138.622 0.623377 138.349 0.7013 137.784 0.72078L136.362 0.759742C136.031 0.779223 135.875 0.876625 135.875 1.07143C135.875 1.11039 135.895 1.16883 135.914 1.26624L136.09 1.88962C136.128 2.0065 136.888 4.20781 138.369 8.45459C138.622 9.19486 139.09 10.578 139.791 12.6234C142.343 5.37665 143.629 1.55845 143.629 1.18832C143.629 0.818184 143.239 0.662339 142.479 0.7013H141.758C141.564 0.7013 141.486 0.642858 141.486 0.487013C141.486 0.311687 141.719 0.233765 142.187 0.233765H142.986C143.414 0.272726 143.745 0.311687 143.94 0.311687H144.68L146.219 0.233765C146.453 0.292207 146.609 0.350649 146.609 0.467532Z" fill="white"/>
  <path d="M170.629 11.9611C170.629 13.2858 170.122 14.4351 169.109 15.3702C168.096 16.3053 166.869 16.7728 165.447 16.7728C164.609 16.7728 163.616 16.5196 162.447 16.0131C162.135 15.8767 161.901 15.7988 161.746 15.7988C161.551 15.7988 161.453 16.0131 161.395 16.4417C161.375 16.6559 161.278 16.7728 161.103 16.7728C160.947 16.7728 160.869 16.6754 160.869 16.5001C160.869 16.3832 160.869 16.2858 160.888 16.2274C161.005 15.2728 161.083 14.3962 161.083 13.5975C161.083 13.4416 161.064 13.0131 161.044 12.2923C161.025 12.1949 161.025 12.078 161.025 11.9221C161.025 11.6884 161.122 11.5715 161.297 11.5715C161.453 11.5715 161.551 11.7663 161.629 12.1364C162.038 14.9222 163.343 16.3248 165.564 16.3248C166.518 16.3248 167.239 16.052 167.765 15.5261C168.291 15.0001 168.544 14.2403 168.544 13.2468C168.544 12.3702 168.291 11.6299 167.785 11.026C167.278 10.4027 166.421 9.79876 165.194 9.19486C163.713 8.47408 162.7 7.75329 162.116 7.07147C161.531 6.38965 161.259 5.55198 161.259 4.53899C161.259 3.25327 161.668 2.18183 162.505 1.34416C163.343 0.506497 164.395 0.0779228 165.661 0.0779228C166.187 0.0779228 166.927 0.253248 167.843 0.62338C168.174 0.740264 168.408 0.818187 168.564 0.818187C168.739 0.818187 168.856 0.779226 168.895 0.720784C168.953 0.662342 168.992 0.487016 169.051 0.233768C169.09 0.0779227 169.168 0 169.304 0C169.46 0 169.538 0.0974035 169.538 0.272729C169.538 0.389613 169.538 0.487016 169.518 0.545458C169.479 0.91559 169.44 1.36364 169.44 1.88962C169.44 2.62989 169.479 3.2143 169.557 3.66236L169.577 4.03249C169.596 4.20782 169.518 4.28574 169.362 4.28574C169.187 4.28574 169.07 4.11041 169.012 3.74028C168.836 2.82469 168.427 2.06495 167.804 1.44157C167.161 0.837668 166.46 0.525977 165.661 0.525977C164.862 0.525977 164.259 0.779225 163.81 1.26624C163.362 1.75326 163.129 2.43508 163.129 3.29223C163.129 4.28574 163.46 5.08445 164.122 5.68835C164.492 6.039 165.291 6.50653 166.538 7.12991C167.999 7.8507 169.051 8.61044 169.674 9.35071C170.298 10.1299 170.629 10.9871 170.629 11.9611Z" fill="white"/>
  <path d="M183.992 4.4805C183.992 4.67531 183.895 4.77271 183.72 4.77271C183.525 4.77271 183.408 4.5779 183.33 4.16881C183.291 3.89608 183.272 3.60387 183.233 3.33114C183.116 2.76621 182.94 2.29867 182.687 1.90906C182.356 1.40256 181.83 1.07139 181.09 0.935025C180.603 0.837622 180.213 0.798661 179.921 0.818142C179.2 0.837622 178.752 0.857103 178.596 0.857103V14.9026C178.596 15.4676 178.752 15.8182 179.044 15.9546C179.2 16.0325 179.629 16.0715 180.349 16.091C180.544 16.1104 180.622 16.1689 180.622 16.2858C180.622 16.4221 180.505 16.4806 180.252 16.4806C180.135 16.4806 180.018 16.4806 179.921 16.4611C178.986 16.4221 178.324 16.4221 177.934 16.4221C177.427 16.4221 176.94 16.4416 176.492 16.4611C176.044 16.4806 175.46 16.5001 174.778 16.5001C174.427 16.5001 174.233 16.4416 174.233 16.3052C174.233 16.1689 174.564 16.091 175.226 16.0715C175.713 16.0715 176.025 15.9741 176.161 15.7598C176.239 15.6429 176.278 15.3117 176.278 14.8052V0.876583C174.739 0.896064 173.785 0.973987 173.414 1.11035C172.44 1.461 171.856 2.41555 171.7 3.974C171.661 4.44154 171.544 4.67531 171.369 4.67531C171.174 4.67531 171.096 4.51946 171.096 4.18829C171.096 4.01297 171.096 3.83764 171.116 3.6818L171.155 3.13634C171.194 2.41555 171.272 1.48048 171.369 0.311646H172.421L177.174 0.389568C177.739 0.409048 178.596 0.409048 179.785 0.389568L183.642 0.311646C183.681 1.18827 183.778 2.474 183.934 4.16881C183.934 4.20777 183.934 4.26621 183.953 4.34414C183.992 4.42206 184.012 4.46102 183.992 4.4805Z" fill="white"/>
  <path d="M10.4784 8.22082C9.25107 7.57796 7.90691 7.30523 6.58222 7.46107C5.803 7.55848 4.75104 7.65588 3.97182 7.7338C2.70558 7.88965 1.32245 8.02601 0.0756906 8.22082C-0.0217125 8.2403 -0.0217122 8.39614 0.0562103 8.41563C0.932839 8.57147 1.80947 8.66887 2.66662 8.76628C3.32896 8.8442 4.61468 8.96108 5.27702 9.01952C6.15365 9.09745 7.03028 9.31173 7.88743 9.19485C8.80302 9.07797 9.66016 8.88316 10.4978 8.41563C10.5563 8.35718 10.5563 8.2403 10.4784 8.22082Z" fill="white"/>
  <path d="M10.4784 1.09094C9.25107 0.448075 7.90691 0.175346 6.58222 0.331191C5.803 0.428594 4.75104 0.525998 3.97182 0.60392C2.70558 0.759765 1.32245 0.89613 0.0756906 1.09094C-0.0217125 1.11042 -0.0217122 1.26626 0.0562103 1.28574C0.932839 1.44159 1.80947 1.53899 2.66662 1.63639C3.32896 1.71432 4.61468 1.8312 5.27702 1.88964C6.15365 1.96756 7.03028 2.18185 7.88743 2.06497C8.80302 1.94808 9.66016 1.75328 10.4978 1.28574C10.5563 1.24678 10.5563 1.1299 10.4784 1.09094Z" fill="white"/>
  <path d="M10.4784 15.3312C9.25107 14.6884 7.90691 14.4156 6.58222 14.5715C5.803 14.6689 4.75104 14.7663 3.97182 14.8442C2.70558 15.0001 1.32245 15.1364 0.0756906 15.3312C-0.0217125 15.3507 -0.0217122 15.5066 0.0562103 15.526C0.932839 15.6819 1.80947 15.7793 2.66662 15.8767C3.32896 15.9546 4.61468 16.0715 5.27702 16.1299C6.15365 16.2079 7.03028 16.4221 7.88743 16.3053C8.80302 16.1884 9.66016 15.9936 10.4978 15.526C10.5563 15.4676 10.5563 15.3507 10.4784 15.3312Z" fill="white"/>
  <path d="M158.375 8.22082C157.148 7.57796 155.804 7.30523 154.479 7.46107C153.7 7.55848 152.648 7.65588 151.869 7.7338C150.603 7.88965 149.219 8.02601 147.973 8.22082C147.875 8.2403 147.875 8.39614 147.953 8.41563C148.83 8.57147 149.706 8.66887 150.564 8.76628C151.226 8.8442 152.512 8.96108 153.174 9.01952C154.051 9.09745 154.927 9.31173 155.784 9.19485C156.7 9.07797 157.557 8.88316 158.395 8.41563C158.434 8.35718 158.434 8.2403 158.375 8.22082Z" fill="white"/>
  <path d="M158.375 1.09094C157.148 0.448075 155.804 0.175346 154.479 0.331191C153.7 0.428594 152.648 0.525998 151.869 0.60392C150.603 0.759765 149.219 0.89613 147.973 1.09094C147.875 1.11042 147.875 1.26626 147.953 1.28574C148.83 1.44159 149.706 1.53899 150.564 1.63639C151.226 1.71432 152.512 1.8312 153.174 1.88964C154.051 1.96756 154.927 2.18185 155.784 2.06497C156.7 1.94808 157.557 1.75328 158.395 1.28574C158.434 1.24678 158.434 1.1299 158.375 1.09094Z" fill="white"/>
  <path d="M158.375 15.3312C157.148 14.6884 155.804 14.4156 154.479 14.5715C153.7 14.6689 152.648 14.7663 151.869 14.8442C150.603 15.0001 149.219 15.1364 147.973 15.3312C147.875 15.3507 147.875 15.5066 147.953 15.526C148.83 15.6819 149.706 15.7793 150.564 15.8767C151.226 15.9546 152.512 16.0715 153.174 16.1299C154.051 16.2079 154.927 16.4221 155.784 16.3053C156.7 16.1884 157.557 15.9936 158.395 15.526C158.434 15.4676 158.434 15.3507 158.375 15.3312Z" fill="white"/>
</svg>